<?xml version="1.0" encoding="UTF-8"?>
<svg version="1.1" xmlns="http://www.w3.org/2000/svg" width="375" height="100">
<path d="M0 0 C1.8125 1.08984375 1.8125 1.08984375 3.8125 4.08984375 C4.07010279 6.78436896 3.90150053 9.3753275 3.8125 12.08984375 C2.4925 12.41984375 1.1725 12.74984375 -0.1875 13.08984375 C0.8025 14.57484375 0.8025 14.57484375 1.8125 16.08984375 C3.1428125 15.53296875 3.1428125 15.53296875 4.5 14.96484375 C8.22076005 13.98200147 9.48688135 14.32922211 12.8125 16.08984375 C12.4825 15.42984375 12.1525 14.76984375 11.8125 14.08984375 C9.49093403 13.68255147 7.1556213 13.34545698 4.8125 13.08984375 C4.32448257 5.89158667 4.32448257 5.89158667 6.5625 2.21484375 C10.14583333 -1.16941551 10.14583333 -1.16941551 12.8125 -1.91015625 C18.28532534 -1.64534212 22.0000746 -0.67730086 26.8125 2.08984375 C28.4625 0.76984375 30.1125 -0.55015625 31.8125 -1.91015625 C38.6875 1.96484375 38.6875 1.96484375 39.8125 3.08984375 C40.06285974 6.39501309 39.99771952 9.71380416 40 13.02734375 C40.01224609 13.95998047 40.02449219 14.89261719 40.03710938 15.85351562 C40.03904297 16.74490234 40.04097656 17.63628906 40.04296875 18.5546875 C40.04707764 19.37573975 40.05118652 20.19679199 40.05541992 21.04272461 C39.8125 23.08984375 39.8125 23.08984375 37.8125 25.08984375 C36.8225 25.08984375 35.8325 25.08984375 34.8125 25.08984375 C34.8125 24.42984375 34.8125 23.76984375 34.8125 23.08984375 C34.173125 22.86296875 33.53375 22.63609375 32.875 22.40234375 C30.8125 21.08984375 30.8125 21.08984375 30.0625 18.46484375 C29.98 17.68109375 29.8975 16.89734375 29.8125 16.08984375 C31.7925 14.76984375 33.7725 13.44984375 35.8125 12.08984375 C35.53632467 10.14909514 35.53632467 10.14909514 34.8125 8.08984375 C31.89485 6.14474375 30.18712715 5.63708058 26.8125 5.08984375 C26.83570313 6.36601562 26.85890625 7.6421875 26.8828125 8.95703125 C26.90156829 10.62629625 26.91976869 12.29556755 26.9375 13.96484375 C26.95425781 14.80660156 26.97101563 15.64835937 26.98828125 16.515625 C26.99794922 17.72412109 26.99794922 17.72412109 27.0078125 18.95703125 C27.02352295 20.07247314 27.02352295 20.07247314 27.03955078 21.21044922 C26.8125 23.08984375 26.8125 23.08984375 24.8125 25.08984375 C21.02346292 24.83724128 19.27063407 22.81134932 16.8125 20.08984375 C15.4925 21.73984375 14.1725 23.38984375 12.8125 25.08984375 C9.68959365 24.60405832 6.81669641 24.09124255 3.8125 23.08984375 C2.8225 23.74984375 1.8325 24.40984375 0.8125 25.08984375 C-2.14826291 24.7309634 -3.03408021 24.24326354 -5.1875 22.08984375 C-5.72375 22.58484375 -6.26 23.07984375 -6.8125 23.58984375 C-9.89059234 25.53390207 -11.61152849 25.69851975 -15.1875 25.08984375 C-17.125 22.90234375 -17.125 22.90234375 -18.1875 20.08984375 C-17.875 17.40234375 -17.875 17.40234375 -17.1875 15.08984375 C-17.1875 14.42984375 -17.1875 13.76984375 -17.1875 13.08984375 C-17.1875 9.42317708 -17.1875 5.75651042 -17.1875 2.08984375 C-10.88777698 -1.21126372 -6.77230623 -2.62426867 0 0 Z M11.8125 5.08984375 C12.451875 5.79109375 13.09125 6.49234375 13.75 7.21484375 C15.97636102 10.31825608 16.46330943 12.33604514 16.8125 16.08984375 C19.87013218 14.301526 19.87013218 14.301526 22.8125 12.08984375 C22.8125 11.09984375 22.8125 10.10984375 22.8125 9.08984375 C19.83194414 6.66380991 17.80926908 5.17651932 13.9375 4.83984375 C13.23625 4.92234375 12.535 5.00484375 11.8125 5.08984375 Z M-9.1875 5.08984375 C-10.1775 5.74984375 -11.1675 6.40984375 -12.1875 7.08984375 C-9.7125 7.58484375 -9.7125 7.58484375 -7.1875 8.08984375 C-7.9375 13.83984375 -7.9375 13.83984375 -10.1875 16.08984375 C-8.8675 16.41984375 -7.5475 16.74984375 -6.1875 17.08984375 C-5.89875 16.30609375 -5.61 15.52234375 -5.3125 14.71484375 C-4.1875 12.08984375 -4.1875 12.08984375 -2.1875 10.08984375 C-2.1875 9.09984375 -2.1875 8.10984375 -2.1875 7.08984375 C-5.53079469 5.89633063 -5.53079469 5.89633063 -9.1875 5.08984375 Z " fill="#101AE6" transform="translate(85.1875,18.91015625)"/>
<path d="M0 0 C2.6875 -0.375 2.6875 -0.375 6 0 C8.4375 2.625 8.4375 2.625 9.6328125 4.265625 C12.00883271 7.27977635 15.032851 9.58865701 18 12 C17.67 13.32 17.34 14.64 17 16 C14.49207147 15.58201191 12.37969186 15.20775592 10.13671875 13.98046875 C6.27763262 12.20966323 2.15612813 12.53445967 -2 13 C-4.87146994 14.36997157 -4.87146994 14.36997157 -7 16 C-7.99 16 -8.98 16 -10 16 C-10.12375 16.70125 -10.2475 17.4025 -10.375 18.125 C-11 21 -11 21 -12.125 23.8125 C-13.28330974 28.0320569 -12.84462532 30.70648797 -12 35 C-11.34 35.99 -10.68 36.98 -10 38 C-9.875 40.6875 -9.875 40.6875 -10 43 C-11.32 43 -12.64 43 -14 43 C-14 44.32 -14 45.64 -14 47 C-15.64453125 48.78125 -15.64453125 48.78125 -17.8125 50.5 C-20.09634184 52.33040148 -21.84249673 53.75886292 -23.44921875 56.21875 C-25 58 -25 58 -27.29296875 58.609375 C-31.31216255 57.70462142 -33.55706755 55.12930973 -36.3125 52.25 C-36.86228516 51.71117187 -37.41207031 51.17234375 -37.97851562 50.6171875 C-42 46.52076863 -42 46.52076863 -42 42 C-40.390625 40.25390625 -40.390625 40.25390625 -38.25 38.5625 C-35.04545984 35.93443796 -32.5806061 33.24965213 -30 30 C-29.01 29.67 -28.02 29.34 -27 29 C-26.67 28.01 -26.34 27.02 -26 26 C-25.34 26 -24.68 26 -24 26 C-24 25.34 -24 24.68 -24 24 C-22.57421875 22.6328125 -22.57421875 22.6328125 -20.6875 21.125 C-18.52084608 19.34633844 -16.92404495 17.89691815 -15.25 15.625 C-14.8375 15.08875 -14.425 14.5525 -14 14 C-13.01 14 -12.02 14 -11 14 C-10.9071875 13.13375 -10.9071875 13.13375 -10.8125 12.25 C-9.6794098 9.11221174 -7.62282275 7.98310989 -5 6 C-4.34 5.01 -3.68 4.02 -3 3 C-2.34 3 -1.68 3 -1 3 C-0.67 2.01 -0.34 1.02 0 0 Z M-23 34 C-22.01 34.99 -21.02 35.98 -20 37 C-20.33 36.01 -20.66 35.02 -21 34 C-21.66 34 -22.32 34 -23 34 Z M-18 39 C-17.34 39.66 -16.68 40.32 -16 41 C-16 40.34 -16 39.68 -16 39 C-16.66 39 -17.32 39 -18 39 Z " fill="#B60F17" transform="translate(284,5)"/>
<path d="M0 0 C3.98800207 1.61419131 6.75410595 4.38696919 9.75 7.375 C10.25660156 7.85710938 10.76320313 8.33921875 11.28515625 8.8359375 C12.734375 10.2734375 12.734375 10.2734375 15 13 C15 17 15 17 13.42578125 18.74609375 C12.72839844 19.30425781 12.03101563 19.86242187 11.3125 20.4375 C8.78370934 22.51424135 6.3742438 24.55992097 4.125 26.9375 C2 29 2 29 0 29 C0 29.99 0 30.98 0 32 C-1.609375 33.6484375 -1.609375 33.6484375 -3.75 35.375 C-6.31743178 37.5002379 -8.17866813 39.23992578 -10.1875 41.9375 C-12 44 -12 44 -14.375 44.75 C-17.94364042 43.73038845 -19.19929431 41.75586935 -21.44140625 38.890625 C-23.67701906 36.17875382 -26.24203191 34.16697493 -29 32 C-28.52655875 27.75835288 -26.21433918 26.11000639 -23.0625 23.4375 C-20.21537764 21.00822869 -18.08336473 19.1250471 -16 16 C-15.01 16 -14.02 16 -13 16 C-12.67 14.68 -12.34 13.36 -12 12 C-11.34 12 -10.68 12 -10 12 C-9.67 11.01 -9.34 10.02 -9 9 C-7.3777546 7.29006566 -5.70586575 5.62652316 -4 4 C-3.236875 3.236875 -2.47375 2.47375 -1.6875 1.6875 C-1.130625 1.130625 -0.57375 0.57375 0 0 Z M-9 20 C-8.67 20.99 -8.34 21.98 -8 23 C-7.34 22.67 -6.68 22.34 -6 22 C-6.99 21.34 -7.98 20.68 -9 20 Z M-4 25 C-4 25.66 -4 26.32 -4 27 C-3.34 26.67 -2.68 26.34 -2 26 C-2.66 25.67 -3.32 25.34 -4 25 Z " fill="#1375BC" transform="translate(338,19)"/>
<path d="M0 0 C1.99287415 0.39145559 1.99287415 0.39145559 4.109375 -0.44140625 C5.921875 -0.75390625 5.921875 -0.75390625 8.515625 0.5234375 C12.27221091 4.77399006 11.45976036 9.03136571 11.234375 14.49609375 C11.21181641 15.52734375 11.18925781 16.55859375 11.16601562 17.62109375 C11.10714663 20.1642344 11.02497565 22.70442488 10.921875 25.24609375 C12.901875 25.57609375 14.881875 25.90609375 16.921875 26.24609375 C17.251875 27.89609375 17.581875 29.54609375 17.921875 31.24609375 C20.396875 29.76109375 20.396875 29.76109375 22.921875 28.24609375 C22.426875 26.76109375 22.426875 26.76109375 21.921875 25.24609375 C21.8533255 23.35138559 21.83707128 21.45441035 21.859375 19.55859375 C21.86839844 18.56472656 21.87742188 17.57085937 21.88671875 16.546875 C21.89832031 15.78761719 21.90992188 15.02835938 21.921875 14.24609375 C19.611875 14.57609375 17.301875 14.90609375 14.921875 15.24609375 C14.29167806 5.25047012 14.29167806 5.25047012 16.921875 1.05859375 C17.581875 0.46046875 18.241875 -0.13765625 18.921875 -0.75390625 C21.561875 -0.09390625 24.201875 0.56609375 26.921875 1.24609375 C26.046875 5.99609375 26.046875 5.99609375 24.921875 8.24609375 C25.416875 9.23609375 25.416875 9.23609375 25.921875 10.24609375 C26.08735125 13.65858185 26.2188801 17.06434909 26.26367188 20.48046875 C26.31577564 22.87967478 26.31577564 22.87967478 26.921875 26.24609375 C28.82693235 27.84076882 28.82693235 27.84076882 30.921875 28.24609375 C29.79393458 32.19388524 28.03090076 34.70464598 24.76171875 37.23046875 C21.31227252 39.13462166 17.81677613 39.51039061 13.921875 39.24609375 C8.98069853 37.30491728 8.98069853 37.30491728 6.921875 35.24609375 C6.98069946 33.84901293 7.06909511 32.45313003 7.171875 31.05859375 C7.24798125 27.37036798 6.88331745 25.64526746 4.359375 22.93359375 C1.921875 20.24609375 1.921875 20.24609375 1.796875 17.99609375 C3.38171043 15.5307942 5.18253286 15.08896825 7.921875 14.24609375 C7.29654125 11.72245387 7.29654125 11.72245387 5.921875 9.24609375 C3.46900904 8.25532077 3.46900904 8.25532077 0.921875 8.24609375 C-0.068125 8.74109375 -0.068125 8.74109375 -1.078125 9.24609375 C-3.08612956 8.96497311 -5.08826551 8.63541408 -7.078125 8.24609375 C-7.408125 8.90609375 -7.738125 9.56609375 -8.078125 10.24609375 C-7.48 10.03984375 -6.881875 9.83359375 -6.265625 9.62109375 C-4.078125 9.24609375 -4.078125 9.24609375 -1.078125 11.24609375 C-0.6796875 13.9609375 -0.6796875 13.9609375 -0.703125 17.18359375 C-0.69539062 18.24449219 -0.68765625 19.30539063 -0.6796875 20.3984375 C-1.078125 23.24609375 -1.078125 23.24609375 -2.4453125 25.1171875 C-4.078125 26.24609375 -4.078125 26.24609375 -6.578125 26.37109375 C-9.078125 25.24609375 -9.078125 25.24609375 -10.890625 22.30859375 C-12.99098468 16.47559487 -12.96530856 10.56966975 -10.765625 4.80859375 C-10.20875 3.96296875 -9.651875 3.11734375 -9.078125 2.24609375 C-8.68625 1.60671875 -8.294375 0.96734375 -7.890625 0.30859375 C-5.21263413 -1.26126296 -2.94257557 -0.52085736 0 0 Z " fill="#101AE6" transform="translate(171.078125,17.75390625)"/>
<path d="M0 0 C4.55304942 4.21025226 4.55304942 4.21025226 4.7578125 8.05859375 C4.75523437 9.02925781 4.75265625 9.99992187 4.75 11 C4.75386719 12.45212891 4.75386719 12.45212891 4.7578125 13.93359375 C4.625 16.5625 4.625 16.5625 3.625 19.5625 C2.965 19.5625 2.305 19.5625 1.625 19.5625 C1.625 20.2225 1.625 20.8825 1.625 21.5625 C0.965 21.5625 0.305 21.5625 -0.375 21.5625 C-0.375 22.2225 -0.375 22.8825 -0.375 23.5625 C-4.29171361 26.17364241 -7.74905266 26.91523919 -12.46875 26.28125 C-16.3089834 25.42149625 -19.57570346 24.4784339 -22.375 21.5625 C-22.375 20.5725 -22.375 19.5825 -22.375 18.5625 C-23.035 18.5625 -23.695 18.5625 -24.375 18.5625 C-25.73182449 14.49202653 -25.89972254 10.81858283 -25.375 6.5625 C-22.8211226 1.54933325 -19.43122276 -2.39195011 -14 -4.25 C-8.03278609 -4.67622957 -4.54454364 -3.91042127 0 0 Z " fill="#18602E" transform="translate(297.375,22.4375)"/>
<path d="M0 0 C0.33 1.98 0.66 3.96 1 6 C1.70125 5.5875 2.4025 5.175 3.125 4.75 C6 4 6 4 9.25 5.8125 C12 8 12 8 13 9 C13.25035974 12.30516934 13.18521952 15.62396041 13.1875 18.9375 C13.19974609 19.87013672 13.21199219 20.80277344 13.22460938 21.76367188 C13.22654297 22.65505859 13.22847656 23.54644531 13.23046875 24.46484375 C13.23457764 25.285896 13.23868652 26.10694824 13.24291992 26.95288086 C13 29 13 29 11 31 C10.01 31 9.02 31 8 31 C8 30.34 8 29.68 8 29 C7.360625 28.773125 6.72125 28.54625 6.0625 28.3125 C4 27 4 27 3.25 24.375 C3.1675 23.59125 3.085 22.8075 3 22 C4.98 20.68 6.96 19.36 9 18 C8.75568004 15.45748398 8.75568004 15.45748398 7 13 C3.72174346 11.91991217 0.41943506 11.42269769 -3 11 C-3 11.66 -3 12.32 -3 13 C-2.360625 13.165 -1.72125 13.33 -1.0625 13.5 C1 15 1 15 1.9375 18.6875 C2.27948765 23.25845693 1.39167109 26.09360388 -1 30 C-3.4375 31.0625 -3.4375 31.0625 -6 31 C-8.3125 30.0625 -8.3125 30.0625 -10 29 C-10.99 29.66 -11.98 30.32 -13 31 C-16.0625 30.8125 -16.0625 30.8125 -19 30 C-21.29013653 26.5647952 -21.17842973 25.014669 -21 21 C-19.68 20.67 -18.36 20.34 -17 20 C-18.32 19.67 -19.64 19.34 -21 19 C-22.05425873 10.38185325 -22.05425873 10.38185325 -19.6171875 7.1875 C-16.6909281 4.95796903 -14.91184868 3.93921009 -11.1875 4.1875 C-10.465625 4.455625 -9.74375 4.72375 -9 5 C-8.34 5 -7.68 5 -7 5 C-7 3.35 -7 1.7 -7 0 C-4.3333581 -1.33332095 -2.83319697 -0.67102033 0 0 Z M-11 13 C-10.95875 13.886875 -10.9175 14.77375 -10.875 15.6875 C-10.99897246 18.97277013 -11.61387904 21.05449295 -13 24 C-12.2575 23.814375 -11.515 23.62875 -10.75 23.4375 C-8 23 -8 23 -5.875 23.625 C-5.25625 23.74875 -4.6375 23.8725 -4 24 C-2.22809091 22.64555699 -2.22809091 22.64555699 -1 21 C-1.33 20.34 -1.66 19.68 -2 19 C-2.33 19.33 -2.66 19.66 -3 20 C-4.66617115 20.04063832 -6.33388095 20.042721 -8 20 C-8 17.69 -8 15.38 -8 13 C-8.99 13 -9.98 13 -11 13 Z " fill="#101AE6" transform="translate(22,13)"/>
<path d="M0 0 C2.64 0 5.28 0 8 0 C8 1.98 8 3.96 8 6 C9.6396875 6.0928125 9.6396875 6.0928125 11.3125 6.1875 C15 7 15 7 16.9375 9.5625 C17.288125 10.366875 17.63875 11.17125 18 12 C18.680625 11.195625 19.36125 10.39125 20.0625 9.5625 C23.55649165 6.51454984 25.41160294 6.08193566 30 6 C33.88192461 7.0351799 34.72249908 7.58374862 37 11 C37.72623683 16.00721184 38.08394772 20.49645961 35.0625 24.6875 C30.9525309 26.44891533 27.40497288 26.85469623 23 26 C20.4375 24 20.4375 24 19 22 C18.67 23.32 18.34 24.64 18 26 C15.36 26 12.72 26 10 26 C9.67 21.71 9.34 17.42 9 13 C8.67 17.29 8.34 21.58 8 26 C5.36 26 2.72 26 0 26 C0 17.42 0 8.84 0 0 Z M27 12 C26.67 14.31 26.34 16.62 26 19 C26.99 19.33 27.98 19.66 29 20 C29 17.69 29 15.38 29 13 C28.34 12.67 27.68 12.34 27 12 Z " fill="#BF1E2E" transform="translate(304,66)"/>
<path d="M0 0 C2.92945104 1.30197824 4.515817 2.28525367 6.3125 4.9375 C7 7 7 7 7 11 C4.36 11 1.72 11 -1 11 C-1 9.68 -1 8.36 -1 7 C-2.32 7.33 -3.64 7.66 -5 8 C-5 11.63 -5 15.26 -5 19 C-4.01 19 -3.02 19 -2 19 C-1.67 18.01 -1.34 17.02 -1 16 C1.64 16 4.28 16 7 16 C7.268125 15.071875 7.53625 14.14375 7.8125 13.1875 C9.509839 8.63148479 9.509839 8.63148479 12 7 C16.62899888 5.88561138 19.80477284 5.60272734 24 8 C26.97675385 12.46513078 26.60315333 16.76744905 26 22 C24.5625 24.6875 24.5625 24.6875 22 26 C18.86570331 26.59645198 16.12672003 26.66881712 13 26 C10 23.5625 10 23.5625 8 21 C7.67 20.67 7.34 20.34 7 20 C6.54625 20.804375 6.0925 21.60875 5.625 22.4375 C4 25 4 25 2 26 C-2.91996928 26.53118252 -6.77327597 26.75105553 -11.0625 24.125 C-14.23560355 20.64482191 -14.21247434 18.33606087 -14.3125 13.6875 C-14.34988281 12.55699219 -14.38726562 11.42648438 -14.42578125 10.26171875 C-13.91269709 6.33121161 -12.74848923 4.79801156 -10 2 C-6.27420911 -0.48386059 -4.41288598 -0.3804212 0 0 Z M16 13 C14.99782936 16.58327753 14.99782936 16.58327753 16 20 C16.99 19.67 17.98 19.34 19 19 C19 17.35 19 15.7 19 14 C18.01 13.67 17.02 13.34 16 13 Z " fill="#BF1E2E" transform="translate(137,66)"/>
<path d="M0 0 C2.31 0 4.62 0 7 0 C7 1.65 7 3.3 7 5 C7.99 5 8.98 5 10 5 C10 6.65 10 8.3 10 10 C9.01 10 8.02 10 7 10 C7 12.64 7 15.28 7 18 C7.99 18 8.98 18 10 18 C10 19.98 10 21.96 10 24 C8.72125 24.061875 7.4425 24.12375 6.125 24.1875 C5.04605469 24.23970703 5.04605469 24.23970703 3.9453125 24.29296875 C3.30335938 24.19628906 2.66140625 24.09960938 2 24 C-0.28062828 20.57905758 -0.21925007 19.31812778 -0.125 15.3125 C-0.10695312 14.31863281 -0.08890625 13.32476562 -0.0703125 12.30078125 C-0.04710937 11.54152344 -0.02390625 10.78226563 0 10 C-0.99 10 -1.98 10 -3 10 C-3 14.62 -3 19.24 -3 24 C-16.29123571 24.36581383 -16.29123571 24.36581383 -18.9375 23 C-20.6609228 19.75591001 -20.30922634 16.38626061 -20.1875 12.8125 C-20.17396484 12.06291016 -20.16042969 11.31332031 -20.14648438 10.54101562 C-20.11118539 8.69370233 -20.05737917 6.84675934 -20 5 C-17.69 5 -15.38 5 -13 5 C-13 9.29 -13 13.58 -13 18 C-12.01 18 -11.02 18 -10 18 C-10 13.71 -10 9.42 -10 5 C-6.7 5 -3.4 5 0 5 C0 3.35 0 1.7 0 0 Z " fill="#BF1E2E" transform="translate(232,68)"/>
<path d="M0 0 C5.04761905 3.04761905 5.04761905 3.04761905 7 5 C7.2632246 8.94836905 7.08997373 11.60379269 5 15 C5.66 15.66 6.32 16.32 7 17 C6.42307692 23.57692308 6.42307692 23.57692308 5 25 C2.66706666 25.04320247 0.3329866 25.04022391 -2 25 C-5.01148928 24.89594618 -5.01148928 24.89594618 -7.9375 25.625 C-11.19640794 26.02404995 -12.35852312 25.85881706 -15 24 C-16.35439668 21.29120665 -16.06501451 18.99066732 -16 16 C-14.68 15.67 -13.36 15.34 -12 15 C-13.32 15 -14.64 15 -16 15 C-16.4189555 11.57520502 -16.60465743 8.40901688 -16 5 C-11.7691981 -0.07241304 -6.28423493 -1.6018638 0 0 Z M-10 6 C-9.360625 6.350625 -8.72125 6.70125 -8.0625 7.0625 C-5.17836168 9.77184206 -5.2899178 12.15858911 -5 16 C-4.34 16 -3.68 16 -3 16 C-3.33 13.36 -3.66 10.72 -4 8 C-3.34 8 -2.68 8 -2 8 C-2 7.34 -2 6.68 -2 6 C-4.64 6 -7.28 6 -10 6 Z " fill="#101AE6" transform="translate(216,18)"/>
<path d="M0 0 C1.03125 -0.20625 2.0625 -0.4125 3.125 -0.625 C6 -1 6 -1 8.66015625 -0.06640625 C11 2 11 2 11.40136719 3.84277344 C11.49375121 6.1482218 11.43448077 8.38238722 11.3125 10.6875 C11.209375 13.430625 11.10625 16.17375 11 19 C5.39 19 -0.22 19 -6 19 C-6 14.71 -6 10.42 -6 6 C-6.66 6 -7.32 6 -8 6 C-8 10.29 -8 14.58 -8 19 C-10.64 19 -13.28 19 -16 19 C-16 12.73 -16 6.46 -16 0 C-9.31890876 -0.74234347 -6.10726967 -0.92185203 0 0 Z " fill="#BF1E2E" transform="translate(180,73)"/>
<path d="M0 0 C0.99 -0.33 1.98 -0.66 3 -1 C5.35188447 -0.40206327 7.68925595 0.25881795 10 1 C9.625 3.4375 9.625 3.4375 9 6 C8.01 6.495 8.01 6.495 7 7 C7.33 7.33 7.66 7.66 8 8 C8.07319621 10.69654854 8.09242537 13.36691458 8.0625 16.0625 C8.05798828 16.82111328 8.05347656 17.57972656 8.04882812 18.36132812 C8.0370068 20.24091871 8.01907078 22.12046899 8 24 C6.02 24.99 6.02 24.99 4 26 C2.02 24.35 0.04 22.7 -2 21 C-1.6875 18.625 -1.6875 18.625 -1 16 C-0.01 15.34 0.98 14.68 2 14 C-0.64 14 -3.28 14 -6 14 C-5.98839844 14.78246094 -5.97679687 15.56492187 -5.96484375 16.37109375 C-5.95582031 17.38300781 -5.94679687 18.39492188 -5.9375 19.4375 C-5.92589844 20.44683594 -5.91429687 21.45617187 -5.90234375 22.49609375 C-6 25 -6 25 -7 26 C-10.5 25.6875 -10.5 25.6875 -14 25 C-15.35439668 22.29120665 -15.06501451 19.99066732 -15 17 C-13.68 17 -12.36 17 -11 17 C-12.32 16.34 -13.64 15.68 -15 15 C-14.96559686 4.05980143 -14.96559686 4.05980143 -11.4375 0.1875 C-7.01321861 -1.34088812 -4.57810786 -0.82556043 0 0 Z M-9 7 C-7.515 7.99 -7.515 7.99 -6 9 C-6 8.34 -6 7.68 -6 7 C-6.99 7 -7.98 7 -9 7 Z " fill="#101AE6" transform="translate(146,18)"/>
<path d="M0 0 C2.4375 1.25 2.4375 1.25 4 3 C4.77679221 6.10716882 5 8.80194543 5 12 C5.061875 13.11375 5.12375 14.2275 5.1875 15.375 C4.98375431 19.31408331 4.60086788 21.05234974 2 24 C-1 24.9375 -1 24.9375 -4 25 C-4.99 24.34 -5.98 23.68 -7 23 C-7.66 23.66 -8.32 24.32 -9 25 C-10.875 24.75 -10.875 24.75 -13 24 C-14.0828125 23.690625 -14.0828125 23.690625 -15.1875 23.375 C-17 22 -17 22 -17.75 18.375 C-17.8325 17.26125 -17.915 16.1475 -18 15 C-17.01 14.34 -16.02 13.68 -15 13 C-15.99 13 -16.98 13 -18 13 C-18.63736133 9.81319333 -18.83045142 7.16289214 -18 4 C-12.46498768 -1.70172956 -7.16967787 -3.09037839 0 0 Z M-12 7 C-11.01 7.33 -10.02 7.66 -9 8 C-8.67 9.65 -8.34 11.3 -8 13 C-7.34 12.67 -6.68 12.34 -6 12 C-5.59270772 9.67843403 -5.25561323 7.3431213 -5 5 C-8.95457848 4.65176193 -8.95457848 4.65176193 -12 7 Z M0 8 C1 10 1 10 1 10 Z M-5 14 C-4.67 14.99 -4.34 15.98 -4 17 C-1.56282742 16.72965366 -1.56282742 16.72965366 1 16 C1.66 15.01 2.32 14.02 3 13 C0.2716232 13 -2.31654063 13.53331141 -5 14 Z " fill="#101AE6" transform="translate(57,19)"/>
<path d="M0 0 C3.87602804 0.58727698 5.26323156 2.50935567 7.89453125 5.34765625 C10.95932779 8.83111037 10.95932779 8.83111037 14.70703125 11.41015625 C14.70703125 15.41015625 14.70703125 15.41015625 13.09765625 17.15625 C12.39125 17.71441406 11.68484375 18.27257812 10.95703125 18.84765625 C7.75249109 21.47571829 5.28763735 24.16050412 2.70703125 27.41015625 C1.71703125 27.74015625 0.72703125 28.07015625 -0.29296875 28.41015625 C-2.66728903 26.18063876 -5.0134702 23.92356425 -7.35546875 21.66015625 C-8.03158203 21.0259375 -8.70769531 20.39171875 -9.40429688 19.73828125 C-10.03916016 19.11953125 -10.67402344 18.50078125 -11.328125 17.86328125 C-11.91988525 17.29770508 -12.51164551 16.73212891 -13.12133789 16.14941406 C-14.29296875 14.41015625 -14.29296875 14.41015625 -14.07128906 12.29199219 C-13.10408943 9.95348066 -11.96025506 8.97024482 -9.98046875 7.41015625 C-7.825782 5.68114082 -6.02051158 4.1056453 -4.16796875 2.03515625 C-2.29296875 0.41015625 -2.29296875 0.41015625 0 0 Z " fill="#237EC0" transform="translate(354.29296875,4.58984375)"/>
<path d="M0 0 C3.18485477 1.01143837 4.51748573 2.33541988 6.76953125 4.77734375 C9.03076681 7.20135307 10.86395011 8.98612299 13.64453125 10.83984375 C13.30542979 13.91824916 12.97072444 15.48904547 10.83203125 17.7890625 C10.11015625 18.36269531 9.38828125 18.93632812 8.64453125 19.52734375 C5.68260454 21.80863668 5.68260454 21.80863668 3.64453125 24.83984375 C2.98453125 24.83984375 2.32453125 24.83984375 1.64453125 24.83984375 C1.64453125 25.49984375 1.64453125 26.15984375 1.64453125 26.83984375 C0.65453125 27.16984375 -0.33546875 27.49984375 -1.35546875 27.83984375 C-2.59244792 26.30989583 -3.82942708 24.77994792 -5.06640625 23.25 C-6.32210785 21.70717938 -6.32210785 21.70717938 -8.35546875 20.83984375 C-8.35546875 20.17984375 -8.35546875 19.51984375 -8.35546875 18.83984375 C-9.01546875 18.83984375 -9.67546875 18.83984375 -10.35546875 18.83984375 C-10.35546875 18.17984375 -10.35546875 17.51984375 -10.35546875 16.83984375 C-11.67546875 16.17984375 -12.99546875 15.51984375 -14.35546875 14.83984375 C-14.35546875 10.83984375 -14.35546875 10.83984375 -12.74609375 9.05859375 C-12.0396875 8.49140625 -11.33328125 7.92421875 -10.60546875 7.33984375 C-8.23198585 5.40434978 -6.19186083 3.65286327 -4.16796875 1.33984375 C-2.35546875 -0.16015625 -2.35546875 -0.16015625 0 0 Z " fill="#A97B50" transform="translate(321.35546875,5.16015625)"/>
<path d="M0 0 C3.12855819 0.05616801 4.320388 0.34994042 7.1875 1.875 C9.81356875 4.97853579 10.01928323 7.3134094 10.25 11.3125 C8.93 11.6425 7.61 11.9725 6.25 12.3125 C6.91 12.84875 7.57 13.385 8.25 13.9375 C10.25 16.3125 10.25 16.3125 10.75 19.3125 C10.25 22.3125 10.25 22.3125 8.9375 24.6875 C4.5856443 27.31885461 0.19329063 27.02913089 -4.75 26.3125 C-7.9375 24.6875 -7.9375 24.6875 -9.75 22.3125 C-10.0625 19.0625 -10.0625 19.0625 -9.75 16.3125 C-8.76 15.9825 -7.77 15.6525 -6.75 15.3125 C-6.75 14.6525 -6.75 13.9925 -6.75 13.3125 C-7.41 13.3125 -8.07 13.3125 -8.75 13.3125 C-9.5625 10.125 -9.5625 10.125 -9.75 6.3125 C-7.375 3.4375 -7.375 3.4375 -4.75 1.3125 C-3.75 0.3125 -3.75 0.3125 0 0 Z M-0.75 7.3125 C-0.75 8.3025 -0.75 9.2925 -0.75 10.3125 C0.9 10.6425 2.55 10.9725 4.25 11.3125 C3.59 9.9925 2.93 8.6725 2.25 7.3125 C1.26 7.3125 0.27 7.3125 -0.75 7.3125 Z M-1.75 17.3125 C-1.75 18.3025 -1.75 19.2925 -1.75 20.3125 C-0.43 20.3125 0.89 20.3125 2.25 20.3125 C1.92 19.3225 1.59 18.3325 1.25 17.3125 C0.26 17.3125 -0.73 17.3125 -1.75 17.3125 Z " fill="#BF1E2E" transform="translate(292.75,65.6875)"/>
<path d="M0 0 C3.6428959 1.49138691 5.56246284 3.56149201 8.0625 6.5625 C10.93574447 10.11894764 10.93574447 10.11894764 15 12 C15 15 15 15 13.35546875 16.68359375 C12.64003906 17.26238281 11.92460937 17.84117188 11.1875 18.4375 C8.91427096 20.28838048 7.15756281 21.75834707 5.55078125 24.22265625 C4 26 4 26 1.640625 26.54296875 C-2.06758466 25.78048185 -3.62650622 24.00275934 -6.25 21.3125 C-7.12140625 20.44238281 -7.9928125 19.57226562 -8.890625 18.67578125 C-11.03303062 15.95810005 -11.68173929 14.39682105 -12 11 C-11.46890625 10.54109375 -10.9378125 10.0821875 -10.390625 9.609375 C-6.81675301 6.50506283 -3.28145941 3.41818688 0 0 Z " fill="#C22B39" transform="translate(255,37)"/>
<path d="M0 0 C4.42761914 1.39153744 6.9556255 3.52071486 10 7 C10 7.66 10 8.32 10 9 C10.99 9.33 11.98 9.66 13 10 C13.356132 13.23910529 13.34548779 14.56322159 11.28515625 17.16796875 C10.55167969 17.83441406 9.81820313 18.50085938 9.0625 19.1875 C6.12442614 21.78710767 6.12442614 21.78710767 4 25 C1.875 25.4375 1.875 25.4375 -1 25 C-2.67075764 23.41434798 -4.02597721 21.6989734 -5.44140625 19.8828125 C-6.96224514 18.04560862 -8.50473005 16.65731215 -10.375 15.1875 C-11.674375 14.1046875 -11.674375 14.1046875 -13 13 C-13 12.34 -13 11.68 -13 11 C-12.01 11 -11.02 11 -10 11 C-9.75507813 10.41734375 -9.51015625 9.8346875 -9.2578125 9.234375 C-7.79564126 6.63697764 -6.15259586 5.16024169 -3.875 3.25 C-3.15054687 2.63640625 -2.42609375 2.0228125 -1.6796875 1.390625 C-0.84824219 0.70226563 -0.84824219 0.70226563 0 0 Z " fill="#0F74BB" transform="translate(322,38)"/>
<path d="M0 0 C0.33 0.99 0.66 1.98 1 3 C1.66 3 2.32 3 3 3 C3.10841951 4.91541138 3.18578079 6.83259773 3.25 8.75 C3.29640625 9.81734375 3.3428125 10.8846875 3.390625 11.984375 C3 15 3 15 1.1875 17.34375 C-1.51605044 19.39072391 -3.66045576 19.69640507 -7 20 C-7 21.65 -7 23.3 -7 25 C-9.64 25 -12.28 25 -15 25 C-15 16.75 -15 8.5 -15 0 C-8.98983089 -0.75127114 -5.63181676 -1.05596564 0 0 Z M-7 6 C-7.93423645 9.01031744 -8.04449911 9.86650268 -7 13 C-6.34 13 -5.68 13 -5 13 C-4.06576355 9.98968256 -3.95550089 9.13349732 -5 6 C-5.66 6 -6.32 6 -7 6 Z " fill="#BF1E2E" transform="translate(357,73)"/>
<path d="M0 0 C2.64 0 5.28 0 8 0 C8.33 1.98 8.66 3.96 9 6 C10.423125 6.2165625 10.423125 6.2165625 11.875 6.4375 C15 7 15 7 17 8 C18.2062252 11.61867559 18.10816918 14.92506251 18.0625 18.6875 C18.05798828 19.38939453 18.05347656 20.09128906 18.04882812 20.81445312 C18.03706927 22.54300538 18.01913454 24.27151365 18 26 C15.66705225 26.04241723 13.33297433 26.04092937 11 26 C10 25 10 25 9.9375 22.53125 C9.97916667 20.51041667 10.02083333 18.48958333 10.0625 16.46875 C10.28507296 14.05541144 10.28507296 14.05541144 9 13 C8.67 17.29 8.34 21.58 8 26 C5.66705225 26.04241723 3.33297433 26.04092937 1 26 C0 25 0 25 -0.11352539 22.59155273 C-0.10828857 21.54942627 -0.10305176 20.5072998 -0.09765625 19.43359375 C-0.09443359 18.30888672 -0.09121094 17.18417969 -0.08789062 16.02539062 C-0.07951172 14.84138672 -0.07113281 13.65738281 -0.0625 12.4375 C-0.05798828 11.24962891 -0.05347656 10.06175781 -0.04882812 8.83789062 C-0.03699675 5.89187774 -0.02051287 2.94596319 0 0 Z " fill="#BF1E2E" transform="translate(20,66)"/>
<path d="M0 0 C4.29 0 8.58 0 13 0 C13 0.66 13 1.32 13 2 C13.61875 2.12375 14.2375 2.2475 14.875 2.375 C17 3 17 3 19 5 C19.30078125 7.05859375 19.30078125 7.05859375 19.3125 9.4375 C19.32925781 10.21996094 19.34601562 11.00242187 19.36328125 11.80859375 C19 14 19 14 17.7734375 15.7421875 C15.55753503 17.31381877 14.00676354 17.49226351 11.3125 17.6875 C10.10013672 17.78611328 10.10013672 17.78611328 8.86328125 17.88671875 C7.94095703 17.94279297 7.94095703 17.94279297 7 18 C7 20.64 7 23.28 7 26 C4.69 26 2.38 26 0 26 C0 17.42 0 8.84 0 0 Z M7 7 C7 8.65 7 10.3 7 12 C8.65 11.67 10.3 11.34 12 11 C11.67 9.68 11.34 8.36 11 7 C9.68 7 8.36 7 7 7 Z " fill="#BF1E2E" transform="translate(0,66)"/>
<path d="M0 0 C2.5829974 4.18592131 2.67252708 8.21569342 2 13 C0.4375 16.0625 0.4375 16.0625 -2 18 C-5.75 18.3125 -5.75 18.3125 -9 18 C-9 19.98 -9 21.96 -9 24 C-11.31 24 -13.62 24 -16 24 C-16 15.75 -16 7.5 -16 -1 C-4.8 -2.4 -4.8 -2.4 0 0 Z M-8 4 C-8.33 6.31 -8.66 8.62 -9 11 C-8.01 11.33 -7.02 11.66 -6 12 C-6 9.69 -6 7.38 -6 5 C-6.66 4.67 -7.32 4.34 -8 4 Z " fill="#BF1E2E" transform="translate(209,74)"/>
<path d="M0 0 C1.67578125 1.03515625 1.67578125 1.03515625 3 3 C3.37674518 5.79251583 3.60191941 8.38779201 3.6875 11.1875 C3.73874023 12.31188477 3.73874023 12.31188477 3.79101562 13.45898438 C3.87334294 15.30546838 3.93835281 17.15270994 4 19 C1.56183415 19.0809723 -0.87364384 19.14046972 -3.3125 19.1875 C-4.34793945 19.22520508 -4.34793945 19.22520508 -5.40429688 19.26367188 C-8.26001005 19.30505902 -10.45014016 19.32111815 -12.953125 17.859375 C-14.44703998 15.20600362 -14.43375355 13.09337604 -14.4375 10.0625 C-14.45683594 9.02222656 -14.47617187 7.98195313 -14.49609375 6.91015625 C-13.8864001 3.33360688 -12.82715287 2.20344103 -10 0 C-6.22941703 -1.25686099 -3.86146303 -0.82745636 0 0 Z " fill="#BF1E2E" transform="translate(53,73)"/>
<path d="M0 0 C3.17728388 3.94098477 3.28759757 6.80898524 2.8125 11.75 C2.71582031 12.89984375 2.61914062 14.0496875 2.51953125 15.234375 C2.34808594 16.14703125 2.17664063 17.0596875 2 18 C-1.68876027 19.84438013 -5.97330313 19.48788734 -10 19 C-12.57637471 17.11484777 -13.59667428 15.80665143 -15 13 C-15.37340899 8.05233086 -15.22237243 4.88907017 -12 1 C-7.90874531 -1.5002112 -4.5530025 -1.26472292 0 0 Z " fill="#BF1E2E" transform="translate(257,73)"/>
<path d="M0 0 C0.99 0.66 1.98 1.32 3 2 C3.38384509 4.93597539 3.603843 7.68027373 3.6875 10.625 C3.73874023 11.82769531 3.73874023 11.82769531 3.79101562 13.0546875 C3.87356878 15.03596318 3.93845916 17.01796037 4 19 C1.54137599 19.05383848 -0.9160755 19.09359038 -3.375 19.125 C-4.42300781 19.15013672 -4.42300781 19.15013672 -5.4921875 19.17578125 C-7.32897486 19.19344267 -9.16601963 19.10303261 -11 19 C-13.86336371 16.13663629 -13.30016187 14.04771654 -13.3125 10.0625 C-13.32925781 8.81597656 -13.34601563 7.56945312 -13.36328125 6.28515625 C-13 3 -13 3 -11.66796875 1.12109375 C-7.67164372 -1.56496078 -4.5308546 -0.8899893 0 0 Z " fill="#BF1E2E" transform="translate(109,73)"/>
<path d="M0 0 C4.32504836 1.65863505 7.09418825 4.871041 10.25 8.125 C11.08144531 8.96998047 11.08144531 8.96998047 11.9296875 9.83203125 C13.29104485 11.21686028 14.64614859 12.60783204 16 14 C15.67 14.99 15.34 15.98 15 17 C14.34 17 13.68 17 13 17 C13 17.66 13 18.32 13 19 C11.38025441 20.71230248 9.7041054 22.37163262 8 24 C7.154375 24.94875 6.30875 25.8975 5.4375 26.875 C3 29 3 29 0.8125 28.9375 C-1 28 -1 28 -3 26 C-2.60467975 23.54901444 -1.78698574 21.36095721 -1 19 C-0.931009 16.93854893 -0.91532273 14.87498599 -0.9375 12.8125 C-0.95103516 11.18248047 -0.95103516 11.18248047 -0.96484375 9.51953125 C-0.97644531 8.68808594 -0.98804688 7.85664063 -1 7 C-1.66 7 -2.32 7 -3 7 C-2.25 2.25 -2.25 2.25 0 0 Z " fill="#A87A4F" transform="translate(304,19)"/>
<path d="M0 0 C2.52775351 3.79163027 2.22443035 6.80874031 2.125 11.1875 C2.11597656 11.93708984 2.10695313 12.68667969 2.09765625 13.45898438 C2.07412578 15.30612654 2.03825561 17.15310412 2 19 C-0.31 19 -2.62 19 -5 19 C-5.33 15.04 -5.66 11.08 -6 7 C-6.33 7 -6.66 7 -7 7 C-7.33 10.96 -7.66 14.92 -8 19 C-10.31 19 -12.62 19 -15 19 C-15 12.73 -15 6.46 -15 0 C-5.1369863 -1.23287671 -5.1369863 -1.23287671 0 0 Z " fill="#BF1E2E" transform="translate(73,73)"/>
<path d="M0 0 C2.52775351 3.79163027 2.22443035 6.80874031 2.125 11.1875 C2.11597656 11.93708984 2.10695313 12.68667969 2.09765625 13.45898438 C2.07412578 15.30612654 2.03825561 17.15310412 2 19 C-0.31 19 -2.62 19 -5 19 C-5.33 14.71 -5.66 10.42 -6 6 C-6.33 6 -6.66 6 -7 6 C-7.33 10.29 -7.66 14.58 -8 19 C-10.31 19 -12.62 19 -15 19 C-15 12.73 -15 6.46 -15 0 C-5.1369863 -1.23287671 -5.1369863 -1.23287671 0 0 Z " fill="#BF1E2E" transform="translate(92,73)"/>
<path d="M0 0 C1.67542976 0.28604898 3.34385343 0.61781233 5 1 C5.33 2.32 5.66 3.64 6 5 C4.700625 6.0209375 4.700625 6.0209375 3.375 7.0625 C0.28431416 9.59322629 -2.04901993 12.43475464 -4.41015625 15.64453125 C-6 17 -6 17 -8.46484375 17.43359375 C-11.72973059 16.87519246 -12.49714409 15.83859678 -14.5 13.25 C-16.58757854 10.65537285 -18.26541095 8.79670651 -20.9375 6.75 C-21.618125 6.1725 -22.29875 5.595 -23 5 C-23 3.68 -23 2.36 -23 1 C-21.68 1 -20.36 1 -19 1 C-19 1.66 -19 2.32 -19 3 C-12.14134131 4.19754358 -7.38192964 3.87756649 -1 1 C-0.67 0.67 -0.34 0.34 0 0 Z " fill="#C59E7E" transform="translate(298,46)"/>
<path d="M0 0 C2.9296875 0.9765625 2.9296875 0.9765625 5.859375 1.953125 C3.984375 6.703125 3.984375 6.703125 2.859375 8.953125 C2.78742631 11.83682833 2.76645792 14.69552164 2.796875 17.578125 C2.80138672 18.37992188 2.80589844 19.18171875 2.81054688 20.0078125 C2.82234332 21.98961506 2.84027895 23.97137933 2.859375 25.953125 C1.0625 26.5859375 1.0625 26.5859375 -1.140625 26.953125 C-4.390625 24.828125 -4.390625 24.828125 -7.140625 21.953125 C-7.515625 19.140625 -7.515625 19.140625 -7.140625 16.953125 C-6.150625 16.623125 -5.160625 16.293125 -4.140625 15.953125 C-4.800625 15.953125 -5.460625 15.953125 -6.140625 15.953125 C-6.24904451 14.03771362 -6.32640579 12.12052727 -6.390625 10.203125 C-6.43703125 9.13578125 -6.4834375 8.0684375 -6.53125 6.96875 C-6.140625 3.953125 -6.140625 3.953125 -4.390625 1.515625 C-2.140625 -0.046875 -2.140625 -0.046875 0 0 Z " fill="#101AE6" transform="translate(235.140625,17.046875)"/>
<path d="M0 0 C0 2.64 0 5.28 0 8 C-1.32 8.33 -2.64 8.66 -4 9 C-4.33 12.63 -4.66 16.26 -5 20 C-7.31 20 -9.62 20 -12 20 C-12 13.73 -12 7.46 -12 1 C-4 0 -4 0 0 0 Z " fill="#BF1E2E" transform="translate(273,72)"/>
<path d="M0 0 C0.99 0.33 1.98 0.66 3 1 C2.4740625 2.2375 2.4740625 2.2375 1.9375 3.5 C0.75529551 7.91356344 1.12004195 10.52687993 2 15 C2.99 16.485 2.99 16.485 4 18 C4.125 20.6875 4.125 20.6875 4 23 C0.9375 23.9375 0.9375 23.9375 -3 24 C-7.04248647 21.15132318 -10.2325043 17.06984661 -13 13 C-16.45007911 14.46976464 -18.56493084 16.40918519 -21.125 19.125 C-22.37827763 20.45394723 -23.66285567 21.75547173 -25 23 C-25.66 23 -26.32 23 -27 23 C-26.67 24.32 -26.34 25.64 -26 27 C-26.66 26.67 -27.32 26.34 -28 26 C-28 22 -28 22 -26.390625 20.25390625 C-25.68421875 19.69574219 -24.9778125 19.13757813 -24.25 18.5625 C-21.06373657 15.9411769 -18.44152212 13.35709292 -16 10 C-12.12867972 10.57352893 -9.91827204 12.48704352 -7 15 C-4.95897032 14.31885058 -4.95897032 14.31885058 -3 13 C-2.37272191 10.94636103 -2.37272191 10.94636103 -2.375 8.625 C-2.22678496 5.21605399 -1.69984325 2.97812537 0 0 Z M-4 19 C-3.34 19.66 -2.68 20.32 -2 21 C-2 20.34 -2 19.68 -2 19 C-2.66 19 -3.32 19 -4 19 Z " fill="#C74048" transform="translate(270,25)"/>
<path d="M0 0 C0 3 0 3 -1.96875 5.26171875 C-2.8040625 6.06222656 -3.639375 6.86273438 -4.5 7.6875 C-5.3353125 8.49574219 -6.170625 9.30398438 -7.03125 10.13671875 C-8.00578125 11.05904297 -8.00578125 11.05904297 -9 12 C-7.85512261 14.28975477 -6.62568162 15.33988726 -4.6875 17 C-4.09324219 17.515625 -3.49898438 18.03125 -2.88671875 18.5625 C-1.00256862 19.99804295 0.85200199 21.01372277 3 22 C3.54269531 21.4225 4.08539063 20.845 4.64453125 20.25 C5.35996094 19.5075 6.07539063 18.765 6.8125 18 C7.52019531 17.2575 8.22789062 16.515 8.95703125 15.75 C11 14 11 14 14 14 C8.68570186 7.82747447 8.68570186 7.82747447 3 2 C3.33 1.34 3.66 0.68 4 0 C4.92232422 0.93972656 4.92232422 0.93972656 5.86328125 1.8984375 C7.07564453 3.12433594 7.07564453 3.12433594 8.3125 4.375 C9.11300781 5.18710938 9.91351563 5.99921875 10.73828125 6.8359375 C13.00009937 9.12604842 13.00009937 9.12604842 16 11 C15.66089854 14.07840541 15.32619319 15.64920172 13.1875 17.94921875 C12.465625 18.52285156 11.74375 19.09648437 11 19.6875 C8.03807329 21.96879293 8.03807329 21.96879293 6 25 C5.34 25 4.68 25 4 25 C4 25.66 4 26.32 4 27 C3.01 27.33 2.02 27.66 1 28 C-0.23697917 26.47005208 -1.47395833 24.94010417 -2.7109375 23.41015625 C-3.9666391 21.86733563 -3.9666391 21.86733563 -6 21 C-6 20.34 -6 19.68 -6 19 C-6.66 19 -7.32 19 -8 19 C-8 18.34 -8 17.68 -8 17 C-9.32 16.34 -10.64 15.68 -12 15 C-12 11 -12 11 -10.390625 9.21875 C-9.68421875 8.6515625 -8.9778125 8.084375 -8.25 7.5 C-7.52296875 6.90058594 -6.7959375 6.30117187 -6.046875 5.68359375 C-5.37140625 5.12800781 -4.6959375 4.57242187 -4 4 C-2.64989719 2.68364976 -1.30585054 1.36026098 0 0 Z " fill="#AF855E" transform="translate(319,5)"/>
<path d="M0 0 C-0.33 0.66 -0.66 1.32 -1 2 C-1.99 2 -2.98 2 -4 2 C-4.309375 2.639375 -4.61875 3.27875 -4.9375 3.9375 C-6 6 -6 6 -7 7 C-7.39889692 11.06874856 -7.14786937 13.64639934 -5.5625 17.4375 C-2.73943381 20.26056619 -2.32500342 20.38733329 1.4375 20.4375 C4.68193053 20.21799232 7.84557048 19.81404633 11 19 C10.34 20.32 9.68 21.64 9 23 C8.01 23 7.02 23 6 23 C6 23.66 6 24.32 6 25 C1.56704245 26.38529924 -1.70247177 25.50016386 -6 24 C-9.69643239 21.91483301 -9.69643239 21.91483301 -10.57421875 19.26953125 C-11.46450387 14.52406652 -11.58889605 9.78968791 -11 5 C-8.77612325 1.84950794 -7.34919699 0.5396788 -3.8125 -0.875 C-2 -1 -2 -1 0 0 Z " fill="#488C68" transform="translate(285,23)"/>
<path d="M0 0 C-1.875 3.875 -1.875 3.875 -3 5 C-3.26293056 9.03160191 -3.29404844 10.55892734 -1 14 C1.20725073 14.36362818 1.20725073 14.36362818 3.625 14.1875 C4.44226563 14.16042969 5.25953125 14.13335937 6.1015625 14.10546875 C6.72804688 14.07066406 7.35453125 14.03585938 8 14 C8.24954005 12.56589632 8.47392642 11.12739928 8.6875 9.6875 C8.87892578 8.48673828 8.87892578 8.48673828 9.07421875 7.26171875 C9.23817276 4.91056775 9.23817276 4.91056775 7.51953125 3.33203125 C6.76736328 2.67267578 6.76736328 2.67267578 6 2 C6 1.34 6 0.68 6 0 C8.86724686 0.57344937 9.8614515 0.8614515 12 3 C12.83031408 7.93818375 12.71912477 11.84012134 10.0625 16.125 C6.52755889 18.28924966 4.26279752 18.85300152 0.16015625 18.61328125 C-3.164092 17.66950734 -4.48347586 15.93068724 -6.1875 13.0078125 C-7.49327637 9.7810382 -7.57947052 7.41243749 -7 4 C-4.67744759 0.87656745 -3.9481664 0 0 0 Z " fill="#DAEAE4" transform="translate(284,26)"/>
<path d="M0 0 C1.67542976 0.28604898 3.34385343 0.61781233 5 1 C6.06483773 4.29131661 6.03206202 5.89579844 5 9.25 C3 12 3 12 -0.4375 13.125 C-4 13 -4 13 -6.5 11.4375 C-8 9 -8 9 -7.75 5.75 C-7.37875 4.38875 -7.37875 4.38875 -7 3 C-5.5459375 2.5359375 -5.5459375 2.5359375 -4.0625 2.0625 C-1.15934208 1.30476658 -1.15934208 1.30476658 0 0 Z M-1 4 C-0.67 5.32 -0.34 6.64 0 8 C0.66 7.67 1.32 7.34 2 7 C2 6.34 2 5.68 2 5 C1.01 4.67 0.02 4.34 -1 4 Z " fill="#101AE6" transform="translate(218,0)"/>
<path d="M0 0 C1.32 0.66 2.64 1.32 4 2 C4 5 4 5 2.35546875 6.68359375 C1.64003906 7.26238281 0.92460937 7.84117188 0.1875 8.4375 C-2.07625772 10.28066886 -3.88216255 11.83362404 -5.57421875 14.22265625 C-6.04472656 14.80917969 -6.51523437 15.39570312 -7 16 C-10 16 -10 16 -11.7890625 14.3203125 C-12.69785156 13.23363281 -12.69785156 13.23363281 -13.625 12.125 C-14.23601562 11.40570313 -14.84703125 10.68640625 -15.4765625 9.9453125 C-17 8 -17 8 -18 6 C-17.02160156 6.03480469 -17.02160156 6.03480469 -16.0234375 6.0703125 C-8.79983152 6.23486058 -8.79983152 6.23486058 -2 4 C-0.57944932 1.99863756 -0.57944932 1.99863756 0 0 Z " fill="#A97C51" transform="translate(298,46)"/>
<path d="M0 0 C4.32504836 1.65863505 7.09418825 4.871041 10.25 8.125 C11.08144531 8.96998047 11.08144531 8.96998047 11.9296875 9.83203125 C13.29104485 11.21686028 14.64614859 12.60783204 16 14 C15.67 14.99 15.34 15.98 15 17 C14.34 17 13.68 17 13 17 C13 17.66 13 18.32 13 19 C11.38025441 20.71230248 9.7041054 22.37163262 8 24 C7.154375 24.94875 6.30875 25.8975 5.4375 26.875 C3 29 3 29 0.8125 28.9375 C-1 28 -1 28 -3 26 C-2.56237193 22.82719649 -1.22638495 19.94332389 0 17 C1.10844919 20.32534757 0.84454356 22.62182575 0 26 C3.34820898 24.53374144 5.69266359 22.66341553 8.3125 20.125 C9.03050781 19.44695313 9.74851562 18.76890625 10.48828125 18.0703125 C12.20293405 16.15381668 12.20293405 16.15381668 11.984375 13.96875 C10.7156299 11.43125981 9.14623575 10.14354679 6.9375 8.375 C5.59087828 7.29107602 4.26911978 6.17371898 3 5 C3 4.34 3 3.68 3 3 C2.01 3.33 1.02 3.66 0 4 C0.33 6.97 0.66 9.94 1 13 C-1 10 -1 10 -1 7 C-1.66 7 -2.32 7 -3 7 C-2.25 2.25 -2.25 2.25 0 0 Z " fill="#BC9571" transform="translate(304,19)"/>
<path d="M0 0 C0.99 0.66 1.98 1.32 3 2 C3.1875 5.625 3.1875 5.625 3 9 C0.1778917 10.91903365 -1.12901932 10.99110212 -4.625 10.75 C-8 10 -8 10 -10 8 C-10.375 5.5625 -10.375 5.5625 -10 3 C-7.02226725 -0.3213173 -4.30709925 -0.45820205 0 0 Z M-4 4 C-4.33 4.66 -4.66 5.32 -5 6 C-4.34 6.66 -3.68 7.32 -3 8 C-2.67 6.68 -2.34 5.36 -2 4 C-2.66 4 -3.32 4 -4 4 Z " fill="#101AE6" transform="translate(150,2)"/>
<path d="M0 0 C2.625 0.375 2.625 0.375 5 1 C5.33 2.32 5.66 3.64 6 5 C6.66 3.68 7.32 2.36 8 1 C8.66 1 9.32 1 10 1 C9.40298507 8.28358209 9.40298507 8.28358209 7.875 11 C4.95813337 12.5556622 2.23371783 12.18304063 -1 12 C-1.66 10.68 -2.32 9.36 -3 8 C-2.34 7.34 -1.68 6.68 -1 6 C-1.165 5.34 -1.33 4.68 -1.5 4 C-1.665 3.34 -1.83 2.68 -2 2 C-1.34 1.34 -0.68 0.68 0 0 Z " fill="#101AE6" transform="translate(184,59)"/>
<path d="M0 0 C3.875 1.875 3.875 1.875 5 3 C5.39152344 6.52371092 5.41041808 8.37616451 3.4375 11.375 C0.07941451 13.61372366 -2.04745604 13.57491549 -6 13 C-7.9375 11.375 -7.9375 11.375 -9 9 C-9.1875 5.75 -9.1875 5.75 -9 3 C-7.68 2.34 -6.36 1.68 -5 1 C-5.33 3.97 -5.66 6.94 -6 10 C-5.34 9.34 -4.68 8.68 -4 8 C-2.68 8 -1.36 8 0 8 C0 5.36 0 2.72 0 0 Z " fill="#145E2D" transform="translate(289,28)"/>
<path d="M0 0 C1.99954746 -0.04254356 4.00041636 -0.04080783 6 0 C7 1 7 1 7.09765625 3.72265625 C7.08605469 4.82480469 7.07445312 5.92695312 7.0625 7.0625 C7.05347656 8.16722656 7.04445312 9.27195312 7.03515625 10.41015625 C7.02355469 11.26480469 7.01195312 12.11945312 7 13 C3.2734375 14.0703125 3.2734375 14.0703125 0.8125 13.4375 C-1 12 -1 12 -1.8125 8.9375 C-1.874375 7.968125 -1.93625 6.99875 -2 6 C-1.67 5.67 -1.34 5.34 -1 5 C-0.63557767 3.33985384 -0.30027117 1.67293936 0 0 Z " fill="#101AE6" transform="translate(146,48)"/>
<path d="M0 0 C1.32 0 2.64 0 4 0 C3.67 1.32 3.34 2.64 3 4 C2.01 4 1.02 4 0 4 C-0.66 8.29 -1.32 12.58 -2 17 C-3.65 17.33 -5.3 17.66 -7 18 C-9.3125 16.25 -9.3125 16.25 -11 14 C-11 11 -11 11 -9.35546875 9.31640625 C-8.64003906 8.73761719 -7.92460937 8.15882812 -7.1875 7.5625 C-4.9192328 5.7156595 -3.13853447 4.20368505 -1.48828125 1.77734375 C-0.75158203 0.89755859 -0.75158203 0.89755859 0 0 Z " fill="#B81219" transform="translate(270,21)"/>
<path d="M0 0 C3.66786393 1.50349377 5.68910393 3.63728792 8.25 6.625 C8.95640625 7.44226562 9.6628125 8.25953125 10.390625 9.1015625 C10.92171875 9.72804688 11.4528125 10.35453125 12 11 C11.01 12.485 11.01 12.485 10 14 C9.608125 13.2575 9.21625 12.515 8.8125 11.75 C6.86961158 8.80216929 4.83531533 7.06901389 2 5 C-1.82792868 6.5595265 -4.36359864 8.83631836 -7 12 C-7 15.3728208 -5.0867179 17.45964777 -3 20 C-4.33333333 19.33333333 -5.66666667 18.66666667 -7 18 C-7.721875 17.731875 -8.44375 17.46375 -9.1875 17.1875 C-11 16 -11 16 -11.61328125 13.42578125 C-11.74089844 12.62527344 -11.86851562 11.82476562 -12 11 C-11.46890625 10.54109375 -10.9378125 10.0821875 -10.390625 9.609375 C-6.81675301 6.50506283 -3.28145941 3.41818688 0 0 Z " fill="#B9161E" transform="translate(255,37)"/>
<path d="M0 0 C4.42761914 1.39153744 6.9556255 3.52071486 10 7 C10 7.66 10 8.32 10 9 C10.99 9.33 11.98 9.66 13 10 C13.356132 13.23910529 13.34548779 14.56322159 11.28515625 17.16796875 C10.55167969 17.83441406 9.81820313 18.50085938 9.0625 19.1875 C6.12442614 21.78710767 6.12442614 21.78710767 4 25 C2.0625 24.6875 2.0625 24.6875 0 24 C-0.33 23.01 -0.66 22.02 -1 21 C-0.29875 20.79375 0.4025 20.5875 1.125 20.375 C4.95725116 18.54218423 7.10452507 16.09748481 10 13 C8.34908222 8.70761377 5.26245434 6.1206085 2 3 C1.38125 3.309375 0.7625 3.61875 0.125 3.9375 C-1.25 4.625 -2.625 5.3125 -4 6 C-2.84826645 3.53199953 -1.95216435 1.95216435 0 0 Z " fill="#0E68B5" transform="translate(322,38)"/>
<path d="M0 0 C0.66 0.33 1.32 0.66 2 1 C0.89718873 2.27200971 -0.20730769 3.54255853 -1.3125 4.8125 C-1.92738281 5.52019531 -2.54226563 6.22789063 -3.17578125 6.95703125 C-6.44911047 10.6228796 -6.44911047 10.6228796 -8 12 C-8.66 12 -9.32 12 -10 12 C-10 12.66 -10 13.32 -10 14 C-8.35 13.67 -6.7 13.34 -5 13 C-5.99 14.485 -5.99 14.485 -7 16 C-10.625 16.1875 -10.625 16.1875 -14 16 C-14.38671875 16.87398437 -14.38671875 16.87398437 -14.78125 17.765625 C-16.09834017 20.1802903 -17.55088384 21.81740177 -19.5 23.75 C-20.41265625 24.67039062 -20.41265625 24.67039062 -21.34375 25.609375 C-23 27 -23 27 -25 27 C-24.525625 27.78375 -24.05125 28.5675 -23.5625 29.375 C-22.66101977 30.88948678 -21.78820515 32.4235897 -21 34 C-23.5363613 32.98545548 -24.79351461 32.3146444 -26.3125 30 C-26.539375 29.34 -26.76625 28.68 -27 28 C-26.67 27.34 -26.34 26.68 -26 26 C-25.34 26 -24.68 26 -24 26 C-24 25.34 -24 24.68 -24 24 C-22.57421875 22.6328125 -22.57421875 22.6328125 -20.6875 21.125 C-18.52084608 19.34633844 -16.92404495 17.89691815 -15.25 15.625 C-14.8375 15.08875 -14.425 14.5525 -14 14 C-13.01 14 -12.02 14 -11 14 C-10.9071875 13.13375 -10.9071875 13.13375 -10.8125 12.25 C-9.6794098 9.11221174 -7.62282275 7.98310989 -5 6 C-4.34 5.01 -3.68 4.02 -3 3 C-2.34 3 -1.68 3 -1 3 C-0.67 2.01 -0.34 1.02 0 0 Z " fill="#D36871" transform="translate(284,5)"/>
<path d="M0 0 C0.66 0.33 1.32 0.66 2 1 C1.731875 1.721875 1.46375 2.44375 1.1875 3.1875 C1.0946875 4.5796875 1.0946875 4.5796875 1 6 C3.29151077 8.62494782 3.29151077 8.62494782 6 11 C6.5259375 12.0828125 6.5259375 12.0828125 7.0625 13.1875 C8.27341861 15.52860931 9.60177814 16.04071126 12 17 C12 17.99 12 18.98 12 20 C11.01 20.33 10.02 20.66 9 21 C8.938125 20.443125 8.87625 19.88625 8.8125 19.3125 C7.0542929 14.3083721 2.07958944 11.14711185 -2 8 C-4.93440199 9.34736338 -7.25073427 10.88566965 -9.6875 13 C-10.28949219 13.515625 -10.89148438 14.03125 -11.51171875 14.5625 C-13.11383116 15.95045944 -13.11383116 15.95045944 -14 18 C-14.99 17.67 -15.98 17.34 -17 17 C-16.22914063 16.31292969 -15.45828125 15.62585937 -14.6640625 14.91796875 C-13.65088582 14.00798599 -12.63787357 13.09782013 -11.625 12.1875 C-11.11710937 11.73568359 -10.60921875 11.28386719 -10.0859375 10.81835938 C-7.67827204 8.64829248 -5.80938139 6.71407209 -4 4 C-3.01 4 -2.02 4 -1 4 C-0.67 2.68 -0.34 1.36 0 0 Z " fill="#4690C9" transform="translate(326,31)"/>
<path d="M0 0 C5.875 4.75 5.875 4.75 7 7 C7.09632897 8.81041793 7.12981533 10.62452753 7.125 12.4375 C7.12757813 13.40558594 7.13015625 14.37367187 7.1328125 15.37109375 C7 18 7 18 6 21 C5.34 21 4.68 21 4 21 C4 21.66 4 22.32 4 23 C3.34 23 2.68 23 2 23 C2 23.66 2 24.32 2 25 C-1 27 -1 27 -4 27 C-4 26.34 -4 25.68 -4 25 C-3.360625 24.71125 -2.72125 24.4225 -2.0625 24.125 C0.15206079 23.17176549 0.15206079 23.17176549 1 21 C0.34 20.67 -0.32 20.34 -1 20 C-0.67 19.34 -0.34 18.68 0 18 C0.22467831 16.46331135 0.40796805 14.92031946 0.5625 13.375 C0.64628906 12.55773438 0.73007812 11.74046875 0.81640625 10.8984375 C0.87699219 10.27195312 0.93757813 9.64546875 1 9 C1.33 9 1.66 9 2 9 C2.33 12.3 2.66 15.6 3 19 C4.14297488 11.45636576 3.6606009 6.79825881 0 0 Z " fill="#6EAE94" transform="translate(295,21)"/>
<path d="M0 0 C0 0.66 0 1.32 0 2 C0.639375 2.268125 1.27875 2.53625 1.9375 2.8125 C4 4 4 4 5 7 C6.95597184 8.39712274 8.95436401 9.73779907 11 11 C11.33 9.68 11.66 8.36 12 7 C13.0625 8.875 13.0625 8.875 14 11 C13.67 11.66 13.34 12.32 13 13 C8.40425532 12.23404255 8.40425532 12.23404255 6.21875 10.96875 C3.29424436 9.69185317 0.92677633 9.80593965 -2.25 9.875 C-3.86648438 9.90207031 -3.86648438 9.90207031 -5.515625 9.9296875 C-6.33546875 9.95289063 -7.1553125 9.97609375 -8 10 C-8 9.34 -8 8.68 -8 8 C-4.52674819 6.8422494 -1.63932552 6.93133348 2 7 C2 6.34 2 5.68 2 5 C-0.31 5 -2.62 5 -5 5 C-5 3 -5 3 -3.625 1.375 C-2 0 -2 0 0 0 Z " fill="#C83545" transform="translate(288,8)"/>
<path d="M0 0 C0.99 0.33 1.98 0.66 3 1 C4.30458348 5.63851904 3.91903707 9.32822823 3 14 C0 16 0 16 -3 16 C-3.02698189 14.37509046 -3.04638757 12.75005367 -3.0625 11.125 C-3.07410156 10.22007813 -3.08570313 9.31515625 -3.09765625 8.3828125 C-3 6 -3 6 -2 4 C-2.99 3.67 -3.98 3.34 -5 3 C-4.01 3 -3.02 3 -2 3 C-2 2.34 -2 1.68 -2 1 C-1.34 0.67 -0.68 0.34 0 0 Z " fill="#2B7950" transform="translate(286,22)"/>
<path d="M0 0 C4.09730319 0.51332956 5.82817326 2.60609596 8.5625 5.5625 C10.78361807 8.03455192 10.78361807 8.03455192 13 10 C13.99 10 14.98 10 16 10 C18.1875 11.5 18.1875 11.5 20 13 C16.9375 13.9375 16.9375 13.9375 13 14 C8.95751353 11.15132318 5.7674957 7.06984661 3 3 C-0.45007911 4.46976464 -2.56493084 6.40918519 -5.125 9.125 C-6.37827763 10.45394723 -7.66285567 11.75547173 -9 13 C-9.66 13 -10.32 13 -11 13 C-10.67 14.32 -10.34 15.64 -10 17 C-10.66 16.67 -11.32 16.34 -12 16 C-12 12 -12 12 -10.390625 10.25390625 C-9.68421875 9.69574219 -8.9778125 9.13757812 -8.25 8.5625 C-5.06373657 5.9411769 -2.44152212 3.35709292 0 0 Z " fill="#D97C84" transform="translate(254,35)"/>
<path d="M0 0 C0.99 0 1.98 0 3 0 C4.24670356 1.44355149 5.48740956 2.8941849 6.66015625 4.3984375 C8.5133364 6.6136091 10.68969287 8.28377185 13 10 C12.52590352 14.31730413 9.96603297 16.33647461 6.9375 19.25 C6.01839844 20.14203125 5.09929687 21.0340625 4.15234375 21.953125 C3.44207031 22.62859375 2.73179687 23.3040625 2 24 C1.01 23.67 0.02 23.34 -1 23 C-0.40138258 20.64828869 0.26924352 18.3140622 1 16 C1.66 15.67 2.32 15.34 3 15 C2.67 16.98 2.34 18.96 2 21 C4.64 18.36 7.28 15.72 10 13 C8.34136748 9.68273496 7.4143765 8.17896883 4.875 5.75 C3.92625 4.8425 2.9775 3.935 2 3 C1.67 4.32 1.34 5.64 1 7 C0.34 5.02 -0.32 3.04 -1 1 C-0.67 0.67 -0.34 0.34 0 0 Z " fill="#9C6736" transform="translate(304,22)"/>
<path d="M0 0 C0.43570312 0.37511719 0.87140625 0.75023437 1.3203125 1.13671875 C5.18607599 4.45859777 9.07657648 7.74642927 13 11 C12.66089854 14.07840541 12.32619319 15.64920172 10.1875 17.94921875 C9.465625 18.52285156 8.74375 19.09648437 8 19.6875 C5.03807329 21.96879293 5.03807329 21.96879293 3 25 C2.34 25 1.68 25 1 25 C1 25.66 1 26.32 1 27 C0.01 27.33 -0.98 27.66 -2 28 C-3.32 26.02 -4.64 24.04 -6 22 C-4.02 22.66 -2.04 23.32 0 24 C3.3 20.7 6.6 17.4 10 14 C8.15438084 10.30876169 6.79427233 8.62685886 3.875 5.875 C2.54605277 4.62172237 1.24452827 3.33714433 0 2 C0 1.34 0 0.68 0 0 Z " fill="#B88C64" transform="translate(322,5)"/>
<path d="M0 0 C3.60561914 1.5299072 5.9859199 3.68696932 8.75 6.4375 C9.54921875 7.21996094 10.3484375 8.00242187 11.171875 8.80859375 C13 11 13 11 13 14 C11.46875 15.38671875 11.46875 15.38671875 9.5 16.6875 C8.8503125 17.12449219 8.200625 17.56148437 7.53125 18.01171875 C6.77328125 18.50091797 6.77328125 18.50091797 6 19 C6.309375 18.4225 6.61875 17.845 6.9375 17.25 C7.97962759 15.04314157 8.72916028 13.42401545 9 11 C7.74269701 8.94774989 7.74269701 8.94774989 5.8125 7.1875 C5.20019531 6.56230469 4.58789062 5.93710938 3.95703125 5.29296875 C2.09273702 3.76081533 2.09273702 3.76081533 -0.11328125 4.23828125 C-2.04226476 4.98786255 -2.04226476 4.98786255 -4 6 C-3.6875 4.125 -3.6875 4.125 -3 2 C-2.01 1.34 -1.02 0.68 0 0 Z " fill="#0B60B2" transform="translate(354,6)"/>
<path d="M0 0 C0.66 0 1.32 0 2 0 C3.5859375 1.609375 3.5859375 1.609375 5.375 3.75 C7.33757727 6.06903702 9.2588295 8.25219284 11.4375 10.375 C13 12 13 12 13 14 C12.34 14 11.68 14 11 14 C9.64613064 12.34997172 8.31321858 10.6825613 7 9 C6.34 8.67 5.68 8.34 5 8 C5 7.34 5 6.68 5 6 C4.01 5.67 3.02 5.34 2 5 C2 4.34 2 3.68 2 3 C-2.42094803 6.72346836 -6.57833482 10.29521038 -10 15 C-10 11 -10 11 -8.06640625 8.7109375 C-7.24011719 7.94007812 -6.41382813 7.16921875 -5.5625 6.375 C-2.35661566 3.50518971 -2.35661566 3.50518971 0 0 Z " fill="#98612E" transform="translate(320,5)"/>
<path d="M0 0 C-0.33 0.66 -0.66 1.32 -1 2 C-1.99 2 -2.98 2 -4 2 C-4.28875 2.598125 -4.5775 3.19625 -4.875 3.8125 C-6 6 -6 6 -8 9 C-8.39387788 11.32387947 -8.73486085 13.65793749 -9 16 C-11.37040308 13.62959692 -11.34465793 12.93697247 -11.4375 9.6875 C-11.35936525 5.95506296 -11.10275545 5.13700727 -8.75 2 C-3.55555556 -1.77777778 -3.55555556 -1.77777778 0 0 Z " fill="#094C17" transform="translate(285,23)"/>
<path d="M0 0 C3.68069887 1.53643852 5.98775204 3.78150945 8.75 6.625 C9.54921875 7.44226563 10.3484375 8.25953125 11.171875 9.1015625 C12.07679688 10.04128906 12.07679688 10.04128906 13 11 C12.67 11.66 12.34 12.32 12 13 C10.49410612 11.71520959 8.99542625 10.42195918 7.5 9.125 C6.6646875 8.40570313 5.829375 7.68640625 4.96875 6.9453125 C4.3190625 6.30335937 3.669375 5.66140625 3 5 C3 4.34 3 3.68 3 3 C2.01 3.33 1.02 3.66 0 4 C0.33 6.97 0.66 9.94 1 13 C-1 10 -1 10 -1 7 C-1.66 7 -2.32 7 -3 7 C-2.25 2.25 -2.25 2.25 0 0 Z " fill="#AD825A" transform="translate(304,19)"/>
<path d="M0 0 C1.32 0 2.64 0 4 0 C4 3 4 3 2.35546875 4.68359375 C1.64003906 5.26238281 0.92460937 5.84117188 0.1875 6.4375 C-2.07625772 8.28066886 -3.88216255 9.83362404 -5.57421875 12.22265625 C-6.04472656 12.80917969 -6.51523437 13.39570312 -7 14 C-10 14 -10 14 -11.7890625 12.3203125 C-12.69785156 11.23363281 -12.69785156 11.23363281 -13.625 10.125 C-14.23601562 9.40570313 -14.84703125 8.68640625 -15.4765625 7.9453125 C-17 6 -17 6 -18 4 C-15 4 -15 4 -13.39453125 5.53125 C-12.87246094 6.1809375 -12.35039062 6.830625 -11.8125 7.5 C-11.01779297 8.47453125 -11.01779297 8.47453125 -10.20703125 9.46875 C-9.80871094 9.9740625 -9.41039062 10.479375 -9 11 C-3.12779369 6.53318509 -3.12779369 6.53318509 0 0 Z " fill="#9A6432" transform="translate(298,48)"/>
<path d="M0 0 C1.875 0.125 1.875 0.125 4 1 C6.8162388 6.23015778 5.82521451 11.35731698 5 17 C4.34 16.67 3.68 16.34 3 16 C2.65625 13.78515625 2.65625 13.78515625 2.5 11.0625 C2.40213614 7.05293771 2.40213614 7.05293771 0 4 C0 2.68 0 1.36 0 0 Z " fill="#074A15" transform="translate(294,24)"/>
<path d="M0 0 C1.99954746 -0.04254356 4.00041636 -0.04080783 6 0 C7 1 7 1 7.3125 3.875 C7 7 7 7 5 8.875 C4.01 9.431875 4.01 9.431875 3 10 C2.67 9.34 2.34 8.68 2 8 C2.33 7.34 2.66 6.68 3 6 C2.01 5.67 1.02 5.34 0 5 C0 3.35 0 1.7 0 0 Z " fill="#101AE6" transform="translate(54,3)"/>
<path d="M0 0 C3.98800207 1.61419131 6.75410595 4.38696919 9.75 7.375 C10.25660156 7.85710938 10.76320313 8.33921875 11.28515625 8.8359375 C12.734375 10.2734375 12.734375 10.2734375 15 13 C15 14.32 15 15.64 15 17 C13.46875 18.484375 13.46875 18.484375 11.5 19.75 C10.8503125 20.17796875 10.200625 20.6059375 9.53125 21.046875 C9.0259375 21.36140625 8.520625 21.6759375 8 22 C9.39159663 18.52100842 10.63251488 17.51947499 14 16 C7.62862039 8.01724318 7.62862039 8.01724318 -1 3 C-0.67 2.01 -0.34 1.02 0 0 Z " fill="#91BDDF" transform="translate(338,19)"/>
<path d="M0 0 C0 1.65 0 3.3 0 5 C-0.66 5 -1.32 5 -2 5 C-0.54718935 10.32697239 3.08111378 13.36402802 7 17 C6.67 17.66 6.34 18.32 6 19 C3.96339574 17.09797311 1.94668664 15.18061509 -0.0625 13.25 C-0.93358398 12.44175781 -0.93358398 12.44175781 -1.82226562 11.6171875 C-3.47265625 10.015625 -3.47265625 10.015625 -6 7 C-5.69251465 4.05450478 -5.26558844 3.23238989 -3 1.25 C-1 0 -1 0 0 0 Z " fill="#6EA7D4" transform="translate(346,12)"/>
<path d="M0 0 C0.99 0.33 1.98 0.66 3 1 C1.8553125 1.86625 1.8553125 1.86625 0.6875 2.75 C-2.00891579 4.83357198 -2.00891579 4.83357198 -3.6875 7.25 C-4.120625 7.8275 -4.55375 8.405 -5 9 C-5.66 9 -6.32 9 -7 9 C-5.16172132 12.15133488 -3.24027294 15.11964908 -1 18 C-2.33333333 17.33333333 -3.66666667 16.66666667 -5 16 C-5.721875 15.731875 -6.44375 15.46375 -7.1875 15.1875 C-9 14 -9 14 -9.61328125 11.42578125 C-9.74089844 10.62527344 -9.86851562 9.82476562 -10 9 C-9.44570312 8.51789062 -8.89140625 8.03578125 -8.3203125 7.5390625 C-7.59585938 6.90742187 -6.87140625 6.27578125 -6.125 5.625 C-5.40570313 4.99851562 -4.68640625 4.37203125 -3.9453125 3.7265625 C-2.5923402 2.52573166 -1.2791655 1.2791655 0 0 Z " fill="#B70F16" transform="translate(253,39)"/>
<path d="M0 0 C1.32 0.33 2.64 0.66 4 1 C4.33 2.32 4.66 3.64 5 5 C4.13375 5.680625 3.2675 6.36125 2.375 7.0625 C-0.12643244 9.11073174 -2.07232143 11.26920686 -4.0625 13.8125 C-6.63133099 16.94389819 -6.63133099 16.94389819 -9.875 17.4375 C-10.57625 17.293125 -11.2775 17.14875 -12 17 C-11.67 16.34 -11.34 15.68 -11 15 C-10.01 15.33 -9.02 15.66 -8 16 C-7.7421875 15.41734375 -7.484375 14.8346875 -7.21875 14.234375 C-5.90165983 11.8197097 -4.44911616 10.18259823 -2.5 8.25 C-1.8915625 7.63640625 -1.283125 7.0228125 -0.65625 6.390625 C1 5 1 5 3 5 C3 4.01 3 3.02 3 2 C2.01 1.67 1.02 1.34 0 1 C0 0.67 0 0.34 0 0 Z " fill="#C7AA8E" transform="translate(299,46)"/>
<path d="M0 0 C4.41713991 0.10773512 6.69587706 1.28148104 9.8125 4.25 C12.41519896 7.03041629 13.88054193 9.05788378 14 13 C13.34 13 12.68 13 12 13 C10.703125 11.64453125 10.703125 11.64453125 9.25 9.8125 C7.19262112 7.31425421 5.14288898 5.15959749 2.625 3.125 C1.75875 2.42375 0.8925 1.7225 0 1 C0 0.67 0 0.34 0 0 Z " fill="#397EC0" transform="translate(309,50)"/>
<path d="M0 0 C0.33 0.99 0.66 1.98 1 3 C0.21625 3.2475 -0.5675 3.495 -1.375 3.75 C-4.48937923 5.23303773 -4.85513198 5.81981107 -6 9 C-6.24143666 12.27942758 -6.24143666 12.27942758 -6.125 15.75 C-6.10695313 16.92046875 -6.08890625 18.0909375 -6.0703125 19.296875 C-6.04710937 20.18890625 -6.02390625 21.0809375 -6 22 C-6.66 22 -7.32 22 -8 22 C-9.35682449 17.92952653 -9.52472254 14.25608283 -9 10 C-6.74849691 5.58038283 -3.99891607 2.88810605 0 0 Z " fill="#54A07E" transform="translate(281,19)"/>
<path d="M0 0 C0.66 0.33 1.32 0.66 2 1 C0.89718873 2.27200971 -0.20730769 3.54255853 -1.3125 4.8125 C-1.92738281 5.52019531 -2.54226563 6.22789063 -3.17578125 6.95703125 C-6.44911047 10.6228796 -6.44911047 10.6228796 -8 12 C-8.66 12 -9.32 12 -10 12 C-10 12.66 -10 13.32 -10 14 C-8.35 13.67 -6.7 13.34 -5 13 C-5.99 14.485 -5.99 14.485 -7 16 C-8.32 16 -9.64 16 -11 16 C-11.375 13.8125 -11.375 13.8125 -11 11 C-8.125 8.375 -8.125 8.375 -5 6 C-4.34 5.01 -3.68 4.02 -3 3 C-2.34 3 -1.68 3 -1 3 C-0.67 2.01 -0.34 1.02 0 0 Z " fill="#DD7E87" transform="translate(284,5)"/>
<path d="M0 0 C0.66 0.33 1.32 0.66 2 1 C1.34 2.32 0.68 3.64 0 5 C2.31 7.31 4.62 9.62 7 12 C5.68 12.33 4.36 12.66 3 13 C0.48897598 11.46804498 -1.30080817 9.38656717 -3 7 C-3.5625 4.25 -3.5625 4.25 -3 2 C-2.01 1.34 -1.02 0.68 0 0 Z " fill="#1A72BA" transform="translate(330,30)"/>
<path d="M0 0 C0.66 0.33 1.32 0.66 2 1 C1.34 2.65 0.68 4.3 0 6 C-1.32 6 -2.64 6 -4 6 C-4.38478516 6.89332031 -4.38478516 6.89332031 -4.77734375 7.8046875 C-6.10969687 10.19696371 -7.43368605 11.42728199 -9.5625 13.125 C-12.21025666 15.20903634 -12.21025666 15.20903634 -14 18 C-14.99 17.67 -15.98 17.34 -17 17 C-16.22914063 16.31292969 -15.45828125 15.62585937 -14.6640625 14.91796875 C-13.65088582 14.00798599 -12.63787357 13.09782013 -11.625 12.1875 C-11.11710937 11.73568359 -10.60921875 11.28386719 -10.0859375 10.81835938 C-7.67827204 8.64829248 -5.80938139 6.71407209 -4 4 C-3.01 4 -2.02 4 -1 4 C-0.67 2.68 -0.34 1.36 0 0 Z " fill="#91C1E2" transform="translate(326,31)"/>
<path d="M0 0 C1.32 0 2.64 0 4 0 C4.37125 1.010625 4.7425 2.02125 5.125 3.0625 C6.95779555 7.40100154 9.80268358 10.59573753 13 14 C9.61995983 12.49603717 7.04191701 10.54283663 4.25 8.125 C3.45078125 7.44695313 2.6515625 6.76890625 1.828125 6.0703125 C0 4 0 4 0 0 Z " fill="#B8936F" transform="translate(275,47)"/>
<path d="M0 0 C0.66 0 1.32 0 2 0 C2 4.29 2 8.58 2 13 C1.01 12.67 0.02 12.34 -1 12 C-1.02687279 10.18757948 -1.04633715 8.37504767 -1.0625 6.5625 C-1.07410156 5.55316406 -1.08570313 4.54382813 -1.09765625 3.50390625 C-1 1 -1 1 0 0 Z " fill="#CCE0D7" transform="translate(286,22)"/>
<path d="M0 0 C0.99 0.33 1.98 0.66 3 1 C2.649375 1.825 2.29875 2.65 1.9375 3.5 C0.59666649 8.50577844 1.00378787 12.65597146 3.0625 17.5 C3.371875 17.995 3.68125 18.49 4 19 C3.01 19 2.02 19 1 19 C-1.40797172 13.43156539 -1.41913263 7.96532949 -1 2 C-0.67 1.34 -0.34 0.68 0 0 Z " fill="#E89DA7" transform="translate(270,25)"/>
<path d="M0 0 C0.33 0 0.66 0 1 0 C1.268125 1.0725 1.53625 2.145 1.8125 3.25 C2.87631151 6.60940478 3.83366479 8.34131588 6 11 C6 11.66 6 12.32 6 13 C2.20411134 12.45773019 0.52788007 10.79872437 -2 8 C-1.67 7.01 -1.34 6.02 -1 5 C-0.65179959 3.33637583 -0.31595508 1.67004829 0 0 Z " fill="#1B5B2C" transform="translate(276,32)"/>
<path d="M0 0 C2.3125 0.125 2.3125 0.125 5 1 C7.0625 3.375 7.0625 3.375 9 6 C11.12603185 7.76323505 11.12603185 7.76323505 13 9 C12.67 9.99 12.34 10.98 12 12 C11.29875 11.278125 10.5975 10.55625 9.875 9.8125 C4.88076403 4.81038245 4.88076403 4.81038245 -1 1 C-0.67 0.67 -0.34 0.34 0 0 Z " fill="#BE202E" transform="translate(286,5)"/>
<path d="M0 0 C0.99 0.66 1.98 1.32 3 2 C0.03 4.97 0.03 4.97 -3 8 C-6.16115776 6.63016497 -6.9927092 6.0109362 -9 3 C-7.02 3 -5.04 3 -3 3 C-3.99 3.495 -3.99 3.495 -5 4 C-4.01 4.33 -3.02 4.66 -2 5 C-1.855625 4.360625 -1.71125 3.72125 -1.5625 3.0625 C-1 1 -1 1 0 0 Z " fill="#337FC1" transform="translate(343,40)"/>
<path d="M0 0 C2.86724686 0.57344937 3.8614515 0.8614515 6 3 C6.1953125 5.3828125 6.1953125 5.3828125 6.125 8.125 C6.10695313 9.03507812 6.08890625 9.94515625 6.0703125 10.8828125 C6.04710937 11.58148438 6.02390625 12.28015625 6 13 C5.34 13 4.68 13 4 13 C3.896875 11.741875 3.79375 10.48375 3.6875 9.1875 C3.30390844 5.86042583 3.30390844 5.86042583 1.4375 3.125 C0.963125 2.75375 0.48875 2.3825 0 2 C0 1.34 0 0.68 0 0 Z " fill="#E4F0EB" transform="translate(290,26)"/>
<path d="M0 0 C0.66 0.33 1.32 0.66 2 1 C1.79375 1.61875 1.5875 2.2375 1.375 2.875 C1.25125 3.57625 1.1275 4.2775 1 5 C1.66 5.66 2.32 6.32 3 7 C3.33 4.69 3.66 2.38 4 0 C4.33 0 4.66 0 5 0 C5 2.97 5 5.94 5 9 C2.25851328 8.62952882 0.41406801 8.31412056 -1.8125 6.625 C-3 5 -3 5 -3 2 C-2.01 1.34 -1.02 0.68 0 0 Z " fill="#B70E16" transform="translate(262,30)"/>
<path d="M0 0 C-0.66 1.32 -1.32 2.64 -2 4 C-2.99 4 -3.98 4 -5 4 C-5 4.66 -5 5.32 -5 6 C-7.64 5.34 -10.28 4.68 -13 4 C-13 3.67 -13 3.34 -13 3 C-9.97265625 2.26757812 -9.97265625 2.26757812 -6.9453125 1.53515625 C-1.3649635 0 -1.3649635 0 0 0 Z " fill="#084815" transform="translate(296,42)"/>
<path d="M0 0 C0.33 0 0.66 0 1 0 C1.19504458 2.10348074 1.38078496 4.20782585 1.5625 6.3125 C1.66691406 7.48425781 1.77132813 8.65601563 1.87890625 9.86328125 C2 13 2 13 1 16 C-2 18 -2 18 -5 18 C-5 17.34 -5 16.68 -5 16 C-4.360625 15.71125 -3.72125 15.4225 -3.0625 15.125 C-0.84793921 14.17176549 -0.84793921 14.17176549 0 12 C-0.66 11.67 -1.32 11.34 -2 11 C-1.67 10.34 -1.34 9.68 -1 9 C-0.77532169 7.46331135 -0.59203195 5.92031946 -0.4375 4.375 C-0.35371094 3.55773438 -0.26992188 2.74046875 -0.18359375 1.8984375 C-0.12300781 1.27195312 -0.06242187 0.64546875 0 0 Z " fill="#4E8B69" transform="translate(296,30)"/>
<path d="M0 0 C4.43458973 1.3937282 6.87378374 3.60582235 10 7 C9.67 7.99 9.34 8.98 9 10 C8.52949219 9.51789062 8.05898438 9.03578125 7.57421875 8.5390625 C6.95160156 7.90742188 6.32898438 7.27578125 5.6875 6.625 C5.07261719 5.99851562 4.45773437 5.37203125 3.82421875 4.7265625 C1.91187472 2.81913393 1.91187472 2.81913393 -1 1 C-0.67 0.67 -0.34 0.34 0 0 Z " fill="#0F60B1" transform="translate(338,22)"/>
<path d="M0 0 C3.91402949 1.26941497 5.79072873 2.51167694 8 6 C5 6 5 6 3.3125 4.5 C2.879375 4.005 2.44625 3.51 2 3 C1.38125 3.309375 0.7625 3.61875 0.125 3.9375 C-1.25 4.625 -2.625 5.3125 -4 6 C-2.84826645 3.53199953 -1.95216435 1.95216435 0 0 Z " fill="#0660B2" transform="translate(322,38)"/>
<path d="M0 0 C0.43570312 0.37511719 0.87140625 0.75023437 1.3203125 1.13671875 C1.91585938 1.64847656 2.51140625 2.16023437 3.125 2.6875 C4.07439453 3.50541016 4.07439453 3.50541016 5.04296875 4.33984375 C6.81640213 5.8442533 8.62132079 7.29792354 10.4375 8.75 C11.283125 9.4925 12.12875 10.235 13 11 C13 11.66 13 12.32 13 13 C9.36938333 11.46781315 7.0136227 9.2816856 4.25 6.5 C3.45078125 5.7059375 2.6515625 4.911875 1.828125 4.09375 C0 2 0 2 0 0 Z " fill="#D1B9A2" transform="translate(322,5)"/>
<path d="M0 0 C3.26008643 3.16952847 6.22237877 6.39937989 9 10 C4.74278702 9.52697634 2.67053918 7.18981069 0 4 C0 2.68 0 1.36 0 0 Z " fill="#0C64B3" transform="translate(344,17)"/>
<path d="M0 0 C1.98 0.99 1.98 0.99 4 2 C4 3.98 4 5.96 4 8 C3.67 7.34 3.34 6.68 3 6 C2.01 6.33 1.02 6.66 0 7 C0 4.69 0 2.38 0 0 Z " fill="#094E1B" transform="translate(289,28)"/>
<path d="M0 0 C0.66 0.33 1.32 0.66 2 1 C1.67 3.64 1.34 6.28 1 9 C-0.32 8.01 -1.64 7.02 -3 6 C-2.67 4.68 -2.34 3.36 -2 2 C-1.34 2 -0.68 2 0 2 C0 1.34 0 0.68 0 0 Z " fill="#BF1F30" transform="translate(265,29)"/>
<path d="M0 0 C1 3 1 3 0 6 C0.27769908 8.3406065 0.60539977 10.67624308 1 13 C-1 10 -1 10 -1 7 C-1.66 7 -2.32 7 -3 7 C-2.25 2.25 -2.25 2.25 0 0 Z " fill="#CCAD92" transform="translate(304,19)"/>
<path d="M0 0 C0.99 0.66 1.98 1.32 3 2 C2.67 3.32 2.34 4.64 2 6 C-1.82097239 5.46930939 -4.06171403 4.50298434 -7 2 C-2.25 2.875 -2.25 2.875 0 4 C0 2.68 0 1.36 0 0 Z " fill="#E07D89" transform="translate(299,15)"/>
<path d="M0 0 C2.66666667 2.66666667 5.33333333 5.33333333 8 8 C7.67 8.66 7.34 9.32 7 10 C6.34 9.67 5.68 9.34 5 9 C5 8.34 5 7.68 5 7 C4.34 7 3.68 7 3 7 C3 6.34 3 5.68 3 5 C1.68 4.34 0.36 3.68 -1 3 C-0.67 2.01 -0.34 1.02 0 0 Z " fill="#B58D68" transform="translate(308,17)"/>
<path d="M0 0 C-3.18762365 2.12508244 -5.26512223 2.5020163 -9 3 C-9.66 2.01 -10.32 1.02 -11 0 C-3.57142857 -1.28571429 -3.57142857 -1.28571429 0 0 Z " fill="#A16F40" transform="translate(294,53)"/>
<path d="M0 0 C0.66 1.32 1.32 2.64 2 4 C-0.75924185 5.80411967 -1.88972103 6.0127245 -5.25 5.625 C-6.1575 5.41875 -7.065 5.2125 -8 5 C-8 4.67 -8 4.34 -8 4 C-4.535 3.505 -4.535 3.505 -1 3 C-0.67 2.01 -0.34 1.02 0 0 Z " fill="#C1D9CE" transform="translate(293,37)"/>
<path d="M0 0 C1.32 0.33 2.64 0.66 4 1 C4.33 2.65 4.66 4.3 5 6 C3.68 5.67 2.36 5.34 1 5 C0.67 3.35 0.34 1.7 0 0 Z " fill="#115521" transform="translate(294,24)"/>
<path d="M0 0 C1.11808489 3.35425466 0.78694699 5.58989636 0 9 C0 9.99 0 10.98 0 12 C-1.5625 10.75 -1.5625 10.75 -3 9 C-2.6828368 5.828368 -1.22070812 2.92969949 0 0 Z " fill="#CCAF95" transform="translate(304,36)"/>
<path d="M0 0 C1.32 0.33 2.64 0.66 4 1 C4 1.66 4 2.32 4 3 C4.99 3 5.98 3 7 3 C7 3.99 7 4.98 7 6 C3.75728494 5.4409112 2.06942576 4.5867822 0 2 C0 1.34 0 0.68 0 0 Z " fill="#B8181E" transform="translate(267,41)"/>
<path d="M0 0 C-0.8125 1.9375 -0.8125 1.9375 -2 4 C-2.99 4.33 -3.98 4.66 -5 5 C-5.66 5.99 -6.32 6.98 -7 8 C-6.62952882 5.25851328 -6.31412056 3.41406801 -4.625 1.1875 C-3 0 -3 0 0 0 Z " fill="#C3DCD1" transform="translate(284,26)"/>
<path d="M0 0 C0.99 0.33 1.98 0.66 3 1 C2.360625 1.2475 1.72125 1.495 1.0625 1.75 C-1.18741541 2.81562433 -1.18741541 2.81562433 -1.75 5.125 C-1.8325 5.74375 -1.915 6.3625 -2 7 C-2.99 7 -3.98 7 -5 7 C-3.70700306 4.11562221 -2.34058637 2.12780579 0 0 Z " fill="#3A87C4" transform="translate(352,5)"/>
<path d="M0 0 C0.66 0 1.32 0 2 0 C2 0.66 2 1.32 2 2 C3.65 2.33 5.3 2.66 7 3 C7.33 4.65 7.66 6.3 8 8 C6 8 6 8 4.4921875 6.50390625 C3.69167969 5.54291016 3.69167969 5.54291016 2.875 4.5625 C2.33617187 3.92441406 1.79734375 3.28632812 1.2421875 2.62890625 C0 1 0 1 0 0 Z " fill="#5A99CD" transform="translate(315,55)"/>
<path d="M0 0 C-1.39332574 3.36720387 -2.9789286 4.9859524 -6 7 C-6.66 6.67 -7.32 6.34 -8 6 C-7.0479279 4.99403703 -6.08812654 3.99538437 -5.125 3 C-4.59132813 2.443125 -4.05765625 1.88625 -3.5078125 1.3125 C-2 0 -2 0 0 0 Z " fill="#B61317" transform="translate(265,52)"/>
<path d="M0 0 C0.66 0.66 1.32 1.32 2 2 C1.34 2 0.68 2 0 2 C-0.103125 2.78375 -0.20625 3.5675 -0.3125 4.375 C-1 7 -1 7 -4 9 C-4 5.00095031 -2.27413033 3.19799578 0 0 Z " fill="#A67549" transform="translate(298,46)"/>
<path d="M0 0 C0.66 0.33 1.32 0.66 2 1 C1.34 2.32 0.68 3.64 0 5 C0.99 6.485 0.99 6.485 2 8 C0.0625 7.25 0.0625 7.25 -2 6 C-2.75 3.875 -2.75 3.875 -3 2 C-2.01 1.34 -1.02 0.68 0 0 Z " fill="#075FB1" transform="translate(330,30)"/>
<path d="M0 0 C3.625 0.375 3.625 0.375 7 1 C7 1.99 7 2.98 7 4 C2.545 3.01 2.545 3.01 -2 2 C-1.34 1.34 -0.68 0.68 0 0 Z " fill="#6CAE91" transform="translate(286,18)"/>
</svg>
